<svg version="1.2" xmlns="http://www.w3.org/2000/svg" viewBox="0 0 23 29" width="23" height="29"><style>.a{fill:#fff}</style><path fill-rule="evenodd" class="a" d="m11.2 0.5c6.2 0 11.2 4.9 11.2 11 0 4.3-1.8 8.7-5.3 12.6-2.7 3-5.2 4.7-5.4 4.7q-0.2 0.2-0.5 0.2-0.3 0-0.6-0.2c-0.1 0-2.7-1.7-5.3-4.7-3.5-3.9-5.3-8.3-5.3-12.6 0-6.1 5-11 11.2-11zm0 26.3c2.1-1.5 9.2-7.3 9.2-15.3 0-5-4.1-9.1-9.2-9.1-5.1 0-9.2 4.1-9.2 9.1 0 8 7.1 13.8 9.2 15.3zm0-19.7c2.4 0 4.4 1.9 4.4 4.4 0 2.4-2 4.3-4.4 4.3-2.5 0-4.5-1.9-4.5-4.3 0-2.5 2-4.4 4.5-4.4zm0 6.7c1.3 0 2.4-1 2.4-2.3 0-1.4-1.1-2.4-2.4-2.4-1.3 0-2.4 1-2.4 2.4 0 1.3 1.1 2.3 2.4 2.3z"/></svg>