<svg version="1.2" xmlns="http://www.w3.org/2000/svg" viewBox="0 0 33 21" width="33" height="21"><style>.a{fill:#fff}</style><path fill-rule="evenodd" class="a" d="m27.2 4c0.5-0.4 1.1-0.3 1.5 0.1 0.3 0.4 0.3 1-0.1 1.4l-11.3 9.4q-0.3 0.2-0.7 0.2-0.3 0-0.6-0.2l-11.3-9.4c-0.4-0.4-0.4-1-0.1-1.4 0.4-0.4 1-0.5 1.5-0.1l10.5 8.9zm2.8-4.1c1.6 0 3 1.3 3 2.9v15.3c0 1.6-1.4 2.9-3 2.9h-26.6c-1.7 0-3.1-1.3-3.1-2.9v-15.3c0-1.6 1.4-2.9 3.1-2.9zm1 2.9c0-0.6-0.5-1-1-1h-26.6c-0.6 0-1.1 0.4-1.1 1v15.3c0 0.6 0.5 1 1.1 1h26.6c0.5 0 1-0.4 1-1z"/></svg>