<svg version="1.2" xmlns="http://www.w3.org/2000/svg" viewBox="0 0 29 28" width="29" height="28"><style>.a{fill:#fff}</style><path fill-rule="evenodd" class="a" d="m24.4 3.6c2.5 2.4 3.8 5.5 3.8 8.8 0 0.5-0.5 0.9-1 0.9-0.6 0-1-0.4-1-0.9 0-2.8-1.2-5.4-3.2-7.4-2.1-1.9-4.8-3-7.7-3-0.6 0-1-0.5-1-1 0-0.5 0.4-1 1-1 3.4 0 6.7 1.3 9.1 3.6zm-4.2 8.8c0-2.6-2.2-4.7-4.9-4.7-0.6 0-1-0.5-1-1 0-0.6 0.4-1 1-1 3.8 0 7 3 7 6.7 0 0.5-0.5 0.9-1.1 0.9-0.5 0-1-0.4-1-0.9zm-2.2 5c1.6 0 5.9 3.1 6.5 4.5q0.4 1 0 2.1c-0.6 1.5-1.5 2.7-2.8 3.2q-1 0.4-2 0.4-1.1 0-2.3-0.4c-3.9-1.5-7.3-3.7-10.1-6.3q0-0.1 0-0.1c-2.8-2.7-5.1-5.9-6.6-9.7-0.7-1.4-0.7-2.8-0.1-4 0.6-1.3 1.8-2.2 3.4-2.8q1.1-0.3 2.1 0.1c1.5 0.5 4.7 4.6 4.8 6.2 0.1 1.5-1.1 2.2-1.6 2.6-0.5 0.3-1.1 0.2-1.5-0.2-0.3-0.5-0.2-1.1 0.3-1.4 0.7-0.4 0.8-0.6 0.8-0.9-0.1-0.8-2.7-4.2-3.5-4.5q-0.3-0.1-0.7 0c-1.1 0.3-1.9 0.9-2.2 1.7-0.4 0.7-0.4 1.6 0 2.5 1.5 3.5 3.6 6.5 6.2 9.1q0 0 0 0c2.6 2.5 5.8 4.4 9.5 5.9 1 0.3 1.9 0.4 2.6 0 0.8-0.3 1.4-1 1.8-2.1q0.1-0.4 0-0.7c-0.4-0.7-3.9-3.2-4.8-3.3-0.2 0-0.4 0.1-0.9 0.7-0.3 0.5-0.9 0.6-1.4 0.3-0.5-0.3-0.6-0.9-0.3-1.4 0.4-0.5 1.2-1.6 2.8-1.5z"/></svg>