<svg version="1.2" xmlns="http://www.w3.org/2000/svg" viewBox="0 0 166 127" width="166" height="127"><style>.a{fill:#fff}</style><path fill-rule="evenodd" class="a" d="m38.6 103c-2-1.4-2.4-4.1-1-6.1 1.4-2 4.1-2.4 6.1-1 2 1.4 2.4 4.1 1 6.1-1.4 2-4.1 2.4-6.1 1zm71.6-58.1c1.5 3.6 2.3 7.5 2.3 11.5 0 16.6-13.5 30.1-30 30.1-16.5 0-30-13.5-30-30.1 0-16.6 13.5-30.1 30-30.1 6.6 0 12.7 2.2 17.6 5.8 1.4-3.4 4.8-5.8 8.7-5.8 5.1 0 9.3 4.2 9.3 9.4 0 4.6-3.4 8.5-7.9 9.2zm-3.6 11.5c0-13.3-10.8-24.1-24.1-24.1-13.3 0-24.1 10.8-24.1 24.1 0 13.4 10.8 24.2 24.1 24.2 13.3 0 24.1-10.8 24.1-24.2zm5.6-20.7c0-1.9-1.6-3.4-3.4-3.4-1.9 0-3.5 1.5-3.5 3.4 0 1.9 1.6 3.4 3.5 3.4 1.8 0 3.4-1.5 3.4-3.4zm52.8-30.3v8.7c0 3-2.4 5.4-5.3 5.4h-22.5v25c0 14.6-5.7 28.4-16 38.7-10.4 10.4-24.1 16.1-38.7 16.1-30.1 0-54.7-24.6-54.7-54.8v-3.4c0-1.6 1.4-3 3-3 1.6 0 2.9 1.4 2.9 3v3.4c0 26.9 21.9 48.9 48.8 48.9 13 0 25.3-5.1 34.5-14.3 9.2-9.3 14.3-21.6 14.3-34.6v-25h-97.6v7.8c0 1.6-1.3 2.9-2.9 2.9-1.6 0-3-1.3-3-2.9v-7.8h-22.5c-2.9 0-5.3-2.4-5.3-5.4v-8.7c0-3 2.4-5.4 5.3-5.4h116.9c1.6 0 2.9 1.3 2.9 3 0 1.6-1.3 2.9-2.9 2.9h-116.3v7.7h153.2v-7.7h-23.2c-1.6 0-2.9-1.3-2.9-2.9 0-1.7 1.3-3 2.9-3h23.8c2.9 0 5.3 2.4 5.3 5.4zm-66.8 51c0 8.7-7 15.8-15.7 15.8-8.6 0-15.7-7.1-15.7-15.8 0-8.6 7.1-15.7 15.7-15.7 8.7 0 15.7 7.1 15.7 15.7zm-5.9 0c0-5.4-4.4-9.8-9.8-9.8-5.4 0-9.8 4.4-9.8 9.8 0 5.4 4.4 9.8 9.8 9.8 5.4 0 9.8-4.4 9.8-9.8zm-77.3 51.5c-0.6-1.5 0.2-3.2 1.7-3.8 1-0.4 2-0.2 2.8 0.3 0.4 0.4 0.8 0.8 1 1.4 3.5 8.9 11.9 14.9 21.5 15.3 1.6 0 2.9 1.4 2.8 3-0.1 1.7-1.4 3-3.1 2.9-11.8-0.5-22.3-8-26.7-19.1zm12.4-9.1c0.9-0.2 1.7 0 2.4 0.5 0.6 0.4 1 1 1.2 1.7 1.3 5.4 6.5 9.1 12.1 8.6 1.6-0.1 3 1.1 3.2 2.7 0.1 1.6-1.1 3.1-2.7 3.2-8.4 0.8-16.3-4.8-18.4-13.1-0.4-1.6 0.6-3.2 2.2-3.6zm90.8 3.2c-1.4-2-1-4.7 1-6.1 2-1.4 4.7-1 6.1 1 1.4 2 0.9 4.7-1 6.1-2 1.4-4.7 1-6.1-1zm29.7 5.9c-4.4 11.1-14.9 18.6-26.8 19.1-1.6 0.1-3-1.2-3-2.9-0.1-1.6 1.2-3 2.8-3 9.5-0.4 18-6.4 21.5-15.3 0.2-0.6 0.5-1 1-1.4 0.8-0.5 1.8-0.7 2.8-0.3 1.5 0.6 2.2 2.3 1.7 3.8zm-10.2-5.5c-2.1 8.3-10 13.9-18.4 13.1-1.7-0.1-2.9-1.6-2.7-3.2 0.2-1.6 1.6-2.8 3.2-2.7 5.6 0.5 10.8-3.2 12.1-8.6 0.2-0.7 0.6-1.3 1.2-1.7 0.7-0.5 1.5-0.7 2.4-0.5 1.6 0.4 2.5 2 2.2 3.6z"/></svg>