<svg version="1.2" xmlns="http://www.w3.org/2000/svg" viewBox="0 0 169 176" width="169" height="176"><style>.a{fill:#fff}</style><path fill-rule="evenodd" class="a" d="m79.1 11v-7.6c0-2 1.6-3.5 3.5-3.5 1.9 0 3.4 1.5 3.4 3.5v7.6c0 1.9-1.5 3.5-3.4 3.5-1.9 0-3.5-1.6-3.5-3.5zm89.6 63.5c0 1.9-1.5 3.4-3.4 3.4h-7.7c-1.9 0-3.5-1.5-3.5-3.4 0-1.9 1.6-3.4 3.5-3.4h7.7c1.9 0 3.4 1.5 3.4 3.4zm-157.3 3.4h-7.7c-1.9 0-3.4-1.5-3.4-3.4 0-1.9 1.5-3.4 3.4-3.4h7.7c1.9 0 3.5 1.5 3.5 3.4 0 1.9-1.6 3.4-3.5 3.4zm122.3-44.9c-1.3-1.4-1.3-3.6 0-4.9l5.5-5.5c1.3-1.3 3.5-1.3 4.8 0 1.4 1.4 1.4 3.6 0 4.9l-5.4 5.5c-0.7 0.6-1.6 1-2.4 1-0.9 0-1.8-0.4-2.5-1zm-102.3 0c-0.7 0.6-1.5 1-2.4 1-0.9 0-1.8-0.4-2.5-1l-5.4-5.5c-1.4-1.3-1.4-3.5 0-4.9 1.3-1.3 3.5-1.3 4.9 0l5.4 5.5c1.4 1.3 1.4 3.5 0 4.9zm120.3 93c1.4 1.3 1.4 3.5 0 4.8-0.6 0.7-1.5 1-2.4 1-0.9 0-1.8-0.3-2.4-1l-5.5-5.4c-1.3-1.4-1.3-3.5 0-4.9 1.4-1.3 3.5-1.3 4.9 0zm-128-5.4c1.3 1.3 1.3 3.5 0 4.8l-5.5 5.5c-0.6 0.7-1.5 1-2.4 1-0.9 0-1.8-0.3-2.4-1-1.4-1.4-1.4-3.5 0-4.9l5.4-5.4c1.4-1.4 3.5-1.4 4.9 0zm82.9 11.3v24.8c0 2.5-2.1 4.6-4.6 4.6h-35.1c-2.5 0-4.6-2.1-4.6-4.6v-24.8c-19.2-8.5-32.6-27.8-32.6-50.1 0-30.2 24.5-54.8 54.8-54.8 30.2 0 54.7 24.6 54.7 54.8 0 21.5-12.4 40.2-30.5 49.1zm-45.6-36.4c0-2.9-2.3-5.2-5.2-5.2-2.8 0-5.1 2.3-5.1 5.2 0 2.8 2.3 5.1 5.1 5.1 2.9 0 5.2-2.3 5.2-5.1zm8.2 38.9v7.8h30.5v-7.8c-4.9 1.4-10 2.2-15.2 2.2-5.3 0-10.4-0.8-15.3-2.2zm25.5-53.8c0-5.6-4.6-10.2-10.2-10.2-5.7 0-10.3 4.6-10.3 10.2 0 5.7 4.6 10.3 10.3 10.3 5.6 0 10.2-4.6 10.2-10.3zm19.5 20c2.8 0 5.1-2.3 5.1-5.1 0-2.9-2.3-5.2-5.1-5.2-2.9 0-5.2 2.3-5.2 5.2 0 2.8 2.3 5.1 5.2 5.1zm-14.5 53.8v-5.3h-30.5v5.3zm32.7-72.6c0-26.4-21.5-47.9-47.9-47.9-26.4 0-47.9 21.5-47.9 47.9 0 17.6 9.6 33 23.8 41.4v-12.1l-1.3-4q-1.5 0.4-3.2 0.4c-6.7 0-12.1-5.4-12.1-12 0-6.7 5.4-12.1 12.1-12.1 6.6 0 12 5.4 12 12.1 0 2.9-1 5.6-2.8 7.7l2 6.4q0.2 0.5 0.2 1v15.9c4.3 1.7 8.9 2.7 13.8 3.1v-32.2c-7.8-1.6-13.7-8.5-13.7-16.8 0-9.4 7.7-17.1 17.1-17.1 9.4 0 17.1 7.7 17.1 17.1 0 8.3-5.9 15.2-13.6 16.8v32.2c5.2-0.4 10.2-1.6 14.8-3.6v-15.4q0-0.5 0.2-1l2-6.4c-1.8-2.1-2.8-4.8-2.8-7.7 0-6.7 5.4-12.1 12-12.1 6.7 0 12.1 5.4 12.1 12.1 0 6.6-5.4 12-12.1 12q-1.7 0-3.2-0.4l-1.3 4v11.4c13.6-8.5 22.7-23.5 22.7-40.7zm-31.3-31.4c-0.9 1.7-3 2.2-4.7 1.2-7.6-4.4-17.1-4.2-24.5 0.6-0.6 0.3-1.3 0.5-1.9 0.5-1.1 0-2.3-0.5-2.9-1.6-1-1.6-0.6-3.7 1-4.7 9.7-6.3 21.9-6.5 31.8-0.7 1.7 1 2.2 3.1 1.2 4.7zm11.5 5.1c0.7 1.8-0.3 3.8-2.1 4.4q-0.5 0.2-1.1 0.2c-1.4 0-2.8-0.9-3.3-2.3v-0.1c-0.6-1.8 0.3-3.7 2.1-4.4 1.8-0.6 3.8 0.3 4.4 2.1zm-6.2 115.5c0.6 1.8-0.3 3.7-2.1 4.4q-0.6 0.2-1.1 0.2c-1.5 0-2.8-0.9-3.3-2.3v-0.1c-0.6-1.8 0.3-3.8 2.1-4.4 1.8-0.6 3.8 0.3 4.4 2.1zm-14 1.2c0 1.9-1.6 3.4-3.5 3.4h-23.1c-1.9 0-3.5-1.5-3.5-3.4 0-1.9 1.6-3.5 3.5-3.5h23.1c1.9 0 3.5 1.6 3.5 3.5z"/></svg>