<svg version="1.2" xmlns="http://www.w3.org/2000/svg" viewBox="0 0 158 150" width="158" height="150"><style>.a{fill:#fff}</style><path fill-rule="evenodd" class="a" d="m76.9 53.1c0.5-0.7 1.4-1 2.2-1 0.9 0 1.7 0.3 2.3 1 2.5 2.8 5.5 5 8.9 6.7 3.6 1.8 7.5 2.8 11.6 3.1 1.6 0.1 2.9 1.4 2.9 3v15.2c0 9.9-4.9 19.7-12.8 25.7l-11 8.5c-0.6 0.4-1.2 0.6-1.9 0.6-0.6 0-1.3-0.2-1.8-0.6l-11.1-8.5c-7.9-6-12.8-15.8-12.7-25.7v-15.2c0-1.6 1.2-2.9 2.8-3 4.1-0.3 8-1.3 11.6-3.1 3.4-1.7 6.4-3.9 9-6.7zm2.2 6.3q-3.8 3.5-8.4 5.8c-3.6 1.8-7.3 2.9-11.1 3.4v12.5c-0.1 8 3.9 16 10.3 20.9l9.2 7 9.2-7c6.4-4.9 10.4-12.9 10.4-20.9v-12.5c-3.9-0.5-7.6-1.6-11.1-3.4q-4.7-2.3-8.5-5.8zm-1 25.3l5.6-7.5c1.1-1.4 3-1.6 4.3-0.6 1.4 1 1.6 2.9 0.6 4.2l-7.5 10c-0.5 0.6-1.2 1.1-2 1.2q-0.2 0-0.5 0c-0.6 0-1.3-0.2-1.8-0.6l-6.6-5.1c-1.4-1-1.6-2.9-0.6-4.2 1-1.4 3-1.6 4.3-0.6zm64.9-25.2v69.5h11.3c1.7 0 3.1 1.3 3.1 3v14.3c0 1.7-1.4 3.1-3.1 3.1h-61.4c-1.7 0-3-1.4-3-3.1 0-1.7 1.3-3 3-3h58.4v-8.3h-144.3v8.3h58.4c1.7 0 3.1 1.3 3.1 3 0 1.7-1.4 3.1-3.1 3.1h-61.4c-1.7 0-3.1-1.4-3.1-3.1v-14.3c0-1.7 1.4-3 3.1-3h11.3v-69.5l-9.8 5.5c-1 0.5-2.1 0.5-3.1-0.1-0.9-0.5-1.5-1.5-1.5-2.6v-16.4c0-1.1 0.6-2.1 1.6-2.7l75.2-42.1c0.9-0.6 2-0.6 3 0l75.1 42.1c1 0.6 1.6 1.6 1.6 2.7v16.4c0 1.1-0.6 2.1-1.5 2.6q-0.8 0.5-1.6 0.5-0.8 0-1.5-0.4zm-135.9-2.4l70.6-39.6q0.7-0.4 1.5-0.4 0.8 0 1.5 0.4l70.6 39.6v-9.4l-72.1-40.5-72.1 40.5zm129.8-1.1l-57.7-32.4-57.7 32.4v72.9h115.4zm-57.7 93.4c-1.7 0-3.1-1.4-3.1-3.1 0-1.7 1.4-3 3.1-3 1.7 0 3 1.3 3 3 0 1.7-1.3 3.1-3 3.1z"/></svg>